<?xml version="1.0" encoding="iso-8859-1"?>
<!-- Generator: Adobe Illustrator 17.1.0, SVG Export Plug-In . SVG Version: 6.00 Build 0)  -->
<!DOCTYPE svg PUBLIC "-//W3C//DTD SVG 1.1//EN" "http://www.w3.org/Graphics/SVG/1.1/DTD/svg11.dtd">
<svg version="1.1" id="Capa_1" xmlns="http://www.w3.org/2000/svg" xmlns:xlink="http://www.w3.org/1999/xlink" x="0px" y="0px"
	 viewBox="0 0 259 259" style="enable-background:new 0 0 259 259;" xml:space="preserve">
<path d="M238.167,0h-201c-4.142,0-7.833,3.358-7.833,7.5v63.037L21.201,71c-0.012,0-0.023,0-0.035,0
	c-4.126,0-7.48,3.085-7.499,7.215c-0.019,4.143,3.158,7.39,7.299,7.409l8.368-0.087v43L21.201,129c-0.012,0-0.023,0-0.035,0
	c-4.126,0-7.48,3.085-7.499,7.215c-0.019,4.143,3.158,7.39,7.299,7.409l8.368-0.087v42.5L21.201,186c-0.012,0-0.023,0-0.035,0
	c-4.126,0-7.48,3.335-7.499,7.465c-0.019,4.143,3.158,7.515,7.299,7.534l8.368,0.038V251.5c0,4.142,3.691,7.5,7.833,7.5h201
	c4.142,0,7.167-3.358,7.167-7.5V7.5C245.334,3.358,242.309,0,238.167,0z M47.334,238.465v-37.347l14.461,0.065
	c2.834,4.946,8.399,8.317,14.79,8.317c9.254,0,16.783-7.065,16.783-15.75S85.838,178,76.585,178c-6.333,0-11.855,3.311-14.712,8.183
	l-14.539-0.066v-42.5l14.461,0.065c2.834,4.946,8.399,8.317,14.79,8.317c9.254,0,16.783-7.065,16.783-15.75
	s-7.529-15.75-16.783-15.75c-6.333,0-11.855,3.311-14.712,8.183l-14.539-0.066v-43l14.461,0.065C64.629,90.629,70.194,94,76.585,94
	c9.254,0,16.783-7.065,16.783-15.75S85.838,62.5,76.585,62.5c-6.333,0-11.855,3.311-14.712,8.183l-14.539-0.066V21.762
	c0-2.785,2.267-4.762,5.053-4.762h50.872c2.786,0,5.075,1.977,5.075,4.762v216.703c0,2.785-2.289,5.535-5.075,5.535H52.386
	C49.6,244,47.334,241.25,47.334,238.465z"/>
<g>
</g>
<g>
</g>
<g>
</g>
<g>
</g>
<g>
</g>
<g>
</g>
<g>
</g>
<g>
</g>
<g>
</g>
<g>
</g>
<g>
</g>
<g>
</g>
<g>
</g>
<g>
</g>
<g>
</g>
</svg>
