<?xml version="1.0" encoding="utf-8"?>
<!-- Svg Vector Icons : http://www.onlinewebfonts.com/icon -->
<!DOCTYPE svg PUBLIC "-//W3C//DTD SVG 1.1//EN" "http://www.w3.org/Graphics/SVG/1.1/DTD/svg11.dtd">
<svg version="1.1" xmlns="http://www.w3.org/2000/svg" xmlns:xlink="http://www.w3.org/1999/xlink" x="0px" y="0px" viewBox="0 0 1000 1000" enable-background="new 0 0 1000 1000" xml:space="preserve">
<metadata> Svg Vector Icons : http://www.onlinewebfonts.com/icon </metadata>
<g><g transform="translate(0.000000,511.000000) scale(0.100000,-0.100000)"><path d="M2359.2,4401.6C1352.4,4235.9,533.8,3538.1,222.8,2582.5c-90-274.2-122.8-489.1-122.8-820.6C100,1193,235.1,748.9,552.2,270.1C865.3-198.6,1415.8-616,1935.6-777.7l116.6-36.8V-2425c0-1207.3,6.1-1626.9,24.6-1665.7c53.2-118.7-194.4-112.5,3912.6-112.5H9767l65.5,59.4l67.5,59.3v3370.4v3370.4l-67.5,59.4l-65.5,59.3H7507.8H5248.6l-104.4,196.5c-147.3,280.3-309,495.2-534.1,712.1c-376.5,360.1-800.1,585.2-1315.8,697.8C3085.6,4426.2,2578.1,4438.5,2359.2,4401.6z M3138.8,3969.9c867.7-149.4,1553.2-775.6,1794.6-1639.1c51.2-184.2,55.3-231.2,55.3-568.9c0-339.7-4.1-384.7-57.3-570.9C4692,329.4,4004.4-298.8,3130.7-450.3c-264-47.1-650.7-28.7-920.9,40.9c-364.3,94.1-708,282.4-978.2,540.2c-611.9,575-853.3,1446.8-622.1,2242.8C928.8,3476.7,2015.4,4162.2,3138.8,3969.9z M8968.9,1612.5c47-49.1,59.4-81.9,69.6-190.3c6.1-71.6,24.5-890.2,43-1819.2c34.8-1872.4,36.8-1833.5-94.1-2089.3c-38.9-79.8-118.7-184.2-200.6-266c-337.6-337.6-812.4-417.5-1246.2-208.7c-151.4,73.7-405.2,325.4-478.9,476.8c-155.5,315.2-155.5,663-4.1,978.2c61.4,124.8,241.5,327.4,370.4,415.4c298.8,206.7,744.9,235.3,1070.3,69.6l102.3-51.2V55.2c0,1062-2,1125.5-34.8,1115.3c-20.5-6.2-511.6-116.6-1090.7-247.6c-579.1-131-1053.9-239.4-1055.9-241.5c-2.1-2,4.1-417.5,14.3-925c22.5-1307.6,20.5-2214.2-4.1-2322.6c-108.5-468.6-579.1-837-1072.3-839c-372.4,0-763.3,229.2-947.5,556.6c-235.3,413.4-171.9,939.3,155.5,1289.2s867.7,446.1,1293.3,231.2c55.2-28.6,106.4-51.2,112.5-51.2c6.1,0,10.2,525.9,10.2,1168.5V957.6l57.3,55.3c51.2,49.1,149.4,75.7,1088.7,286.5c568.9,126.9,1162.3,261.9,1319.9,298.8C8819.5,1686.1,8893.2,1688.2,8968.9,1612.5z M3361.9-2310.4v-1463.1h-440h-440v1438.6v1436.5l239.4-6.2c135.1-2,319.2,8.2,415.4,24.6c96.2,14.3,186.2,28.6,200.5,30.7C3355.8-847.2,3361.9-1152.1,3361.9-2310.4z"/><path d="M2584.3,3116.5c-108.5-53.2-122.8-126.9-122.8-611.9v-444l-468.6-6.2c-440-6.1-472.7-8.2-528-49.1c-106.4-79.8-112.5-231.2-16.4-327.4l49.1-49.1h482.9h480.9v-450.2c0-519.8,12.3-575,135.1-626.2c92.1-38.9,171.9-22.5,235.3,45c49.1,51.2,49.1,61.4,59.3,536.1l10.2,485l485,10.2c474.8,10.2,485,10.2,536.1,59.4c67.5,63.4,83.9,143.2,45,235.3c-51.2,122.8-106.4,135.1-626.2,135.1h-450.2v476.8c0,419.5-4.1,480.9-36.8,517.7C2784.8,3141.1,2680.5,3165.7,2584.3,3116.5z"/></g></g>
</svg>