<?xml version="1.0" encoding="utf-8"?>
<!-- Svg Vector Icons : http://www.onlinewebfonts.com/icon -->
<!DOCTYPE svg PUBLIC "-//W3C//DTD SVG 1.1//EN" "http://www.w3.org/Graphics/SVG/1.1/DTD/svg11.dtd">
<svg version="1.1" xmlns="http://www.w3.org/2000/svg" xmlns:xlink="http://www.w3.org/1999/xlink" x="0px" y="0px" viewBox="0 0 1000 1000" enable-background="new 0 0 1000 1000" xml:space="preserve">
<metadata> Svg Vector Icons : http://www.onlinewebfonts.com/icon </metadata>
<g><g transform="translate(0.000000,511.000000) scale(0.100000,-0.100000)"><path d="M1183.2,4973.2c-38.8-20.4-87.8-69.4-108.2-108.2c-34.7-65.4-36.8-243-36.8-4358c0-4719.5-8.2-4386.6,124.6-4662.3c73.5-151.1,271.6-371.7,416.6-463.6c57.2-36.8,157.3-87.8,224.6-114.4l122.5-49l3379.8-6.1c3057.2-4.1,3388-2.1,3465.6,26.5c120.5,47,189.9,134.8,189.9,241c0,75.6-12.2,96-112.3,189.9l-112.3,106.2V294.6v4517.3l-77.6,73.5c-42.9,40.8-116.4,85.8-161.3,100.1c-63.3,18.4-916.9,24.5-3663.7,24.5C1403.8,5010,1248.6,5008,1183.2,4973.2z M7011.6,4029.8c112.3-42.9,112.3-30.6,112.3-1641.9c0-1002.7,6.1-1484.7,20.4-1492.8c40.8-24.5,120.5-171.5,163.4-294.1c112.3-339-16.3-841.4-296.1-1143.6C6595-989.9,5857.8-926.6,5467.7-407.9c-53.1,69.4-116.4,179.7-140.9,245.1c-57.2,147-75.6,437-40.8,604.5c79.6,388,416.6,718.9,806.7,792.4c134.8,24.5,371.7,12.3,437-22.5l42.9-22.5v1115v1115l-65.4-12.3c-36.8-8.2-526.9-116.4-1088.5-243l-1021.1-228.7l-12.3-1221.2l-12.3-1221.2l77.6-136.8c120.5-206.3,167.5-353.3,177.7-567.7c6.1-151.1,0-214.4-32.7-326.7c-112.3-367.6-424.8-649.4-810.8-731.1c-177.7-36.7-249.2-36.7-424.8,0c-504.4,106.2-855.7,528.9-855.7,1033.3c-2,298.2,85.8,522.8,290,739.3c210.3,224.6,490.1,334.9,798.5,314.5c85.8-6.1,175.6-20.4,200.1-32.7l42.9-24.5v1209c0,1362.1-6.1,1305,153.2,1398.9c67.4,38.8,414.6,122.5,1513.3,365.6c786.2,171.5,1433.6,314.5,1441.8,314.5C6952.4,4050.2,6981,4042,7011.6,4029.8z M8206.3-2883v-275.7H4887.7H1567.1l14.3,77.6c32.7,198.1,177.7,371.7,359.4,435c104.1,34.7,251.2,36.8,3187.8,38.8h3077.6V-2883z M8202.2-3969.5l6.1-267.5l-108.2-12.3c-59.2-6.1-1450-10.2-3089.8-6.1l-2981.6,4.1l-110.3,61.3c-159.3,87.8-285.9,259.4-320.6,432.9l-12.3,63.3l3304.3-2l3306.3-4.1L8202.2-3969.5z"/></g></g>
</svg>