<?xml version="1.0" encoding="utf-8"?>
<!-- Svg Vector Icons : http://www.onlinewebfonts.com/icon -->
<!DOCTYPE svg PUBLIC "-//W3C//DTD SVG 1.1//EN" "http://www.w3.org/Graphics/SVG/1.1/DTD/svg11.dtd">
<svg version="1.1" xmlns="http://www.w3.org/2000/svg" xmlns:xlink="http://www.w3.org/1999/xlink" x="0px" y="0px" viewBox="0 0 1000 1000" enable-background="new 0 0 1000 1000" xml:space="preserve">
<metadata> Svg Vector Icons : http://www.onlinewebfonts.com/icon </metadata>
<g><g><path d="M967.4,181.1L818.9,32.6C803.7,17.5,783.9,10,764.1,10c-19.9,0-39.6,7.5-54.7,22.6L525.8,216.3H61.6c-28.5,0-51.6,23.1-51.6,51.6v670.5c0,28.5,23.1,51.6,51.6,51.6h670.5c28.5,0,51.6-23.1,51.6-51.6V474.2l183.7-183.7c15.1-15.1,22.6-34.9,22.6-54.7S982.5,196.3,967.4,181.1L967.4,181.1z M448.4,663.6l-112-112L661,227l112,112L448.4,663.6L448.4,663.6z M316.3,594.5l90.6,89.1l-87.4-3.1L316.3,594.5z M680.5,886.8H113.2V319.5h309.5l-164,164c-15.1,15.1-24.7,41.9-32.4,66.5c-8.3,25.8-9.9,54.5-9.9,75.8v157.9h157.9c21.4,0,57.1-5.2,81-15c23.9-9.8,46.2-17.9,61.3-33l164-158.3L680.5,886.8L680.5,886.8z M809.5,302.6l-112-112l66.7-66.7l112,112L809.5,302.6z"/></g></g>
</svg>