<?xml version="1.0" encoding="utf-8"?>
<!-- Svg Vector Icons : http://www.onlinewebfonts.com/icon -->
<!DOCTYPE svg PUBLIC "-//W3C//DTD SVG 1.1//EN" "http://www.w3.org/Graphics/SVG/1.1/DTD/svg11.dtd">
<svg version="1.1" xmlns="http://www.w3.org/2000/svg" xmlns:xlink="http://www.w3.org/1999/xlink" x="0px" y="0px" viewBox="0 0 1000 1000" enable-background="new 0 0 1000 1000" xml:space="preserve">
<metadata> Svg Vector Icons : http://www.onlinewebfonts.com/icon </metadata>
<g><path d="M260.4,278.8C260.7,131.9,380,13.1,526.8,13.4c146.8,0.3,265.6,119.5,265.4,266.4c-0.3,146.8-119.5,265.6-266.4,265.4c-146.4-0.3-265.1-118.9-265.4-265.4V278.8z"/><path d="M532.7,616.2c-106.7,0-201.8-49.5-263.7-126.9C114.6,579.7,10.8,747,10,938.5h552.2c-32.3-44.7-51.2-99.6-51.2-159c0-62.1,20.7-119.2,55.7-165C555.4,615.6,544.1,616.2,532.7,616.2z"/><path d="M783.1,572.8c-114.2,0-206.9,92.6-206.9,206.9c0,114.3,92.6,206.9,206.9,206.9c114.3,0,206.9-92.7,206.9-207C990,665.2,897.3,572.8,783.1,572.8z M924.7,781.9c0,19.7-16.1,35.7-35.7,35.7h-67.7v67.7c0,19.7-16.1,35.7-35.7,35.7h-4.8c-19.7,0-35.7-16.1-35.7-35.7v-67.7h-67.7c-19.6,0-35.7-16-35.7-35.7v-4.8c0-19.7,16.1-35.7,35.7-35.7H745v-67.7c0-19.7,16.1-35.7,35.7-35.7h4.8c19.7,0,35.7,16.1,35.7,35.7v67.7h67.7c19.7,0,35.7,16.1,35.7,35.7V781.9z"/></g>
</svg>