<svg width="33" height="33" viewBox="0 0 33 33" fill="none" xmlns="http://www.w3.org/2000/svg">
<path d="M12.5555 3.03516C9.31099 3.4471 6.53725 5.17649 4.73514 7.90622C3.48679 9.80076 2.8271 12.4127 3.03924 14.6425C3.18648 16.1483 3.51617 17.3132 4.16392 18.6135C5.21207 20.7138 6.86694 22.361 8.96324 23.4081C10.3175 24.0846 11.4602 24.4023 13.0031 24.5378C15.4765 24.7494 18.2558 23.9613 20.199 22.4903C20.3814 22.349 20.5584 22.2316 20.5817 22.2316C20.611 22.2316 20.7173 22.3494 20.8232 22.4965C21.1942 23.0142 21.2765 23.4142 21.0647 23.732C20.9998 23.8261 20.9469 24.0026 20.9469 24.1203C20.9469 24.6026 21.0883 24.7675 24.9925 28.8091C27.3655 31.2566 28.8318 32.7331 29.0088 32.8331C29.3443 33.0331 29.8509 33.0566 30.2219 32.886C30.3692 32.8212 30.9226 32.3211 31.6766 31.5801C32.8426 30.4269 32.8956 30.3682 32.9605 30.0682C33.037 29.7327 33.0018 29.4269 32.8604 29.1446C32.7486 28.9388 32.6543 28.8327 28.4437 24.491C25.1694 21.1135 24.9337 20.8961 24.451 20.7958C24.3273 20.7723 24.2036 20.7958 24.0564 20.8781C23.6382 21.1016 23.1555 20.9839 22.655 20.5368L22.4135 20.319L22.7432 19.8484C23.6502 18.56 24.3331 16.748 24.5391 15.0951C24.6451 14.248 24.5863 12.4831 24.4271 11.6769C23.5143 7.16461 19.9339 3.77035 15.3645 3.08195C14.8404 2.99999 13.0444 2.97064 12.5555 3.03516ZM15.2114 6.43554C16.6719 6.712 18.0617 7.4533 19.1273 8.52978C21.954 11.3772 22.0128 15.9541 19.2626 18.8722C17.0429 21.2255 13.5449 21.9019 10.6533 20.5255C9.85251 20.1432 9.31068 19.7725 8.68069 19.1783C7.45591 18.0135 6.67837 16.5251 6.42521 14.8544C6.31317 14.1424 6.34287 12.9543 6.48399 12.2895C7.17306 9.10105 9.72272 6.75359 12.9382 6.35358C13.5094 6.27682 14.6108 6.31811 15.2114 6.43554Z" fill="black"/>
<path d="M24 29.5H1V1H30V23" stroke="black" stroke-width="2"/>
</svg>
