<?xml version="1.0" encoding="utf-8"?>
<!-- Svg Vector Icons : http://www.onlinewebfonts.com/icon -->
<!DOCTYPE svg PUBLIC "-//W3C//DTD SVG 1.1//EN" "http://www.w3.org/Graphics/SVG/1.1/DTD/svg11.dtd">
<svg version="1.1" xmlns="http://www.w3.org/2000/svg" xmlns:xlink="http://www.w3.org/1999/xlink" x="0px" y="0px" viewBox="0 0 1000 1000" enable-background="new 0 0 1000 1000" xml:space="preserve" fill="#FFDF6C">
<metadata> Svg Vector Icons : http://www.onlinewebfonts.com/icon </metadata>
<g><g transform="translate(0.000000,512.000000) scale(0.100000,-0.100000)"><path d="M3221.5,5013.3c-1059.9-134.7-1966-700.2-2554.7-1592.8C259,2801,43.5,1946.9,112.8,1217.8C160.9,725.4,268.6,344.5,480.2-80.7c342.4-686.8,883-1225.4,1567.8-1567.8c442.4-221.2,815.7-325.1,1319.7-369.4c808-69.2,1715.9,188.5,2350.7,669.5c59.6,46.2,117.4,84.6,125,84.6c9.6,0,44.3-38.5,78.9-86.6c121.2-169.3,148.1-300.1,78.9-404c-21.2-30.8-38.5-88.5-38.5-127c0-157.7,46.2-211.6,1321.6-1533.2c775.2-800.3,1254.2-1283.1,1312-1315.8c109.6-65.4,275.1-73.1,396.3-17.3c48.1,21.2,228.9,184.7,475.2,427c380.9,377.1,398.2,396.3,419.4,494.4c25,109.7,13.5,209.7-32.7,302c-36.5,67.3-67.3,102-1442.8,1521.7C7342.1-898.2,7265.1-827.1,7107.4-794.3c-40.4,7.7-80.8,0-128.9-26.9c-136.6-73.1-294.3-34.6-457.8,111.6l-78.9,71.2l107.7,153.9c296.3,421.3,519.4,1013.8,586.7,1554.3c34.6,277,15.4,854.1-36.6,1117.7c-298.2,1475.5-1467.8,2585.4-2960.5,2810.5C3967.9,5024.8,3381.2,5034.4,3221.5,5013.3z M4089.1,3901.4c477.1-90.4,931.1-332.8,1279.2-684.8c923.4-931.1,942.6-2427.7,44.2-3381.9C4687.4-934.8,3544.7-1156,2600.1-705.9c-261.6,125-438.6,246.2-644.4,440.5c-400.1,380.9-654.1,867.6-736.8,1413.9c-36.6,232.8-26.9,621.3,19.2,838.7c225.1,1042.6,1058,1810.2,2108.4,1941C3533.1,3953.3,3892.9,3939.8,4089.1,3901.4z"/></g></g>
</svg>