<?xml version="1.0" encoding="utf-8"?>
<!-- Svg Vector Icons : http://www.onlinewebfonts.com/icon -->
<!DOCTYPE svg PUBLIC "-//W3C//DTD SVG 1.1//EN" "http://www.w3.org/Graphics/SVG/1.1/DTD/svg11.dtd">
<svg version="1.1" xmlns="http://www.w3.org/2000/svg" xmlns:xlink="http://www.w3.org/1999/xlink" x="0px" y="0px" viewBox="0 0 1000 1000" enable-background="new 0 0 1000 1000" xml:space="preserve">
<metadata> Svg Vector Icons : http://www.onlinewebfonts.com/icon </metadata>
<g><path d="M949.2,214.2H50.8c-22.6,0-40.8-18.3-40.8-40.8c0-22.6,18.3-40.8,40.8-40.8h898.3c22.6,0,40.8,18.3,40.8,40.8C990,195.9,971.7,214.2,949.2,214.2z"/><path d="M664.7,182.8c-22.6,0-40.8-18.3-40.8-40.8V97.9c0-3.4-2.8-6.2-6.2-6.2H382.4c-3.4,0-6.2,2.8-6.2,6.2V142c0,22.6-18.3,40.8-40.8,40.8c-22.6,0-40.8-18.3-40.8-40.8V97.9c0-48.4,39.4-87.9,87.9-87.9h235.3c48.5,0,87.9,39.4,87.9,87.9V142C705.5,164.6,687.3,182.8,664.7,182.8z"/><path d="M758.8,990H241.2c-74.5,0-135-60.5-135-134.9V295.8c0-22.6,18.3-40.8,40.8-40.8c22.6,0,40.8,18.3,40.8,40.8v559.2c0,29.4,23.9,53.3,53.4,53.3h517.6c29.4,0,53.4-23.9,53.4-53.3V295.8c0-22.6,18.3-40.8,40.8-40.8s40.8,18.3,40.8,40.8v559.2C893.8,929.5,833.3,990,758.8,990z"/><path d="M397.9,745c-22.6,0-40.8-18.3-40.8-40.8V377.5c0-22.6,18.3-40.8,40.8-40.8s40.8,18.3,40.8,40.8v326.7C438.7,726.7,420.5,745,397.9,745z"/><path d="M602.1,745c-22.6,0-40.8-18.3-40.8-40.8V377.5c0-22.6,18.3-40.8,40.8-40.8c22.6,0,40.8,18.3,40.8,40.8v326.7C642.9,726.7,624.7,745,602.1,745z"/></g>
</svg>